<svg width="1000" height="1000" viewBox="0 0 1000 1000" fill="none" xmlns="http://www.w3.org/2000/svg">
<rect width="1000" height="1000" rx="30" fill="#0E0E0E"/>
<path d="M195.881 363.6H320.681V794H195.881V363.6ZM258.281 303.6C235.348 303.6 216.681 296.933 202.281 283.6C187.881 270.267 180.681 253.733 180.681 234C180.681 214.267 187.881 197.733 202.281 184.4C216.681 171.067 235.348 164.4 258.281 164.4C281.215 164.4 299.881 170.8 314.281 183.6C328.681 196.4 335.881 212.4 335.881 231.6C335.881 252.4 328.681 269.733 314.281 283.6C299.881 296.933 281.215 303.6 258.281 303.6ZM445.306 234H574.906V688.4H855.706V794H445.306V234Z" fill="white"/>
</svg>
